<?xml version="1.0" encoding="UTF-8"?>
<svg xmlns="http://www.w3.org/2000/svg" viewBox="0 0 2355 509" width="2355" height="509">
<path d="M2155 0.17C2155.35 0.17 2155.69 0.17 2156.04 0.17C2159.76 2.62 2164.29 4.16 2168.33 6.17C2174.07 9.03 2179.76 12 2185.38 15.1C2203.11 24.86 2220.02 36.03 2235.9 48.55C2274.8 79.23 2307.99 116.21 2334.35 158.17C2339.66 166.63 2344.84 175.53 2348.78 184.73C2350.8 189.42 2352.21 194.66 2354.83 198.98C2354.83 199.29 2354.83 199.6 2354.83 199.91C2340.39 203.8 2325.94 207.68 2311.5 211.57C2308.89 208.66 2307.48 204.29 2305.75 200.76C2302.31 193.75 2298.49 186.79 2294.4 180.14C2282.31 160.5 2268.66 142.4 2253.4 125.12C2232.1 101.01 2205.97 79.84 2178.92 62.58C2171.32 57.73 2163.49 52.96 2155.28 49.2C2151.23 47.34 2146.72 46.11 2143.1 43.5C2147.07 29.06 2151.03 14.61 2155 0.17ZM2131.5 88.65C2143.68 93.52 2155.22 101.16 2166.12 108.4C2194.94 127.52 2219.96 152.21 2240.55 179.92C2248.56 190.72 2263.09 210.8 2266.14 223.5C2251.67 227.17 2237.2 230.83 2222.74 234.5C2214.56 222.32 2207.52 209.72 2198.39 198.14C2177.21 171.26 2150.1 149.14 2120.35 132.5C2124.07 117.88 2127.78 103.27 2131.5 88.65ZM0.17 159.02C52.9 160.09 105.76 159.07 158.5 159.07C169.83 159.07 181.17 159.07 192.5 159.07C202.1 159.07 212.82 159.33 220.45 166.03C232.76 176.83 229 207.21 229 222.5C229 229.51 229.84 237.22 228.5 244.05C209.83 244.06 191.17 244.07 172.5 244.08C170.8 236.43 174.55 222.88 169.98 216.59C165.9 210.97 156.48 212.92 150.5 212.92C132.17 212.92 113.83 212.92 95.5 212.92C95.5 245.3 95.5 277.69 95.5 310.07C131.98 310.21 168.45 310.36 204.93 310.5C204.79 328.32 204.64 346.14 204.5 363.97C168.17 363.97 131.83 363.97 95.5 363.97C95.17 410.32 94.83 456.68 94.5 503.03C73.5 502.98 52.5 502.93 31.5 502.88C31.38 406.42 31.26 309.96 31.14 213.5C20.82 213.32 10.49 213.15 0.17 212.97C0.17 194.99 0.17 177.01 0.17 159.02ZM708.93 451.07C708.93 468.37 708.93 485.68 708.93 502.99C691.79 503.22 674.64 503.03 657.5 503.03C647.75 503.03 636.46 503.4 628.15 497.37C614.43 487.42 617.93 463.26 617.93 448.5C617.93 403.83 617.93 359.17 617.93 314.5C617.93 289.83 617.93 265.17 617.93 240.5C617.93 234.06 619.92 218.94 615.2 214.3C610.26 209.45 594.89 212.21 588.01 211.5C588.01 194.17 588.01 176.83 588.01 159.5C595.52 158.21 603.84 159.07 611.5 159.07C621.83 159.07 632.17 159.07 642.5 159.07C652.95 159.07 664.34 159.37 672.14 167.36C683.43 178.9 680 206.34 680 221.5C680 268.5 680 315.5 680 362.5C680 383.5 680 404.5 680 425.5C680 431.26 678.13 444.11 682.29 448.21C687.25 453.1 702.15 450.98 708.93 451.07ZM840.02 508.83C832.33 508.83 824.64 508.83 816.95 508.83C811.7 507.05 805.33 506.95 799.79 505.62C783.52 501.72 768.28 492.77 756.11 481.41C720.39 448.07 713.42 392.03 721.72 346.37C724.58 330.62 730.04 314.82 738.62 301.18C749.26 284.29 763.7 270.11 781.74 261.25C813.46 245.68 859.46 245.35 888.78 266.71C894.15 270.62 898.16 275.38 902.5 280.32C903.24 275.47 902.16 270.45 902.15 265.5C902.14 253.83 902.15 242.17 902.15 230.5C902.15 225.35 903.7 217.18 898.93 213.58C893.77 209.68 879.59 212.17 872.95 211.5C872.83 194.17 872.71 176.83 872.59 159.5C879.07 158.54 885.92 159.07 892.5 159.07C903.83 159.07 915.17 159.07 926.5 159.07C936.61 159.07 948.05 159.17 955.92 166.58C967.77 177.72 964.2 205.41 964.2 220.5C964.2 267.5 964.2 314.5 964.2 361.5C964.2 382.5 964.2 403.5 964.2 424.5C964.2 430.83 962.32 443.69 967.12 448.39C971.95 453.11 986.85 450.85 993.5 451.17C993.5 468.43 993.5 485.68 993.5 502.94C975.94 503.97 958.09 503.12 940.5 503.12C929.83 503.12 918.15 502.69 910.96 493.55C904.67 485.53 908.5 477.24 905.5 469.08C895.1 485.5 879.85 497.57 861.44 503.91C854.45 506.32 846.23 506.6 840.02 508.83ZM1383.88 508.83C1378.26 508.83 1372.64 508.83 1367.01 508.83C1364.38 508 1361.37 508.23 1358.55 507.79C1351.47 506.68 1344.57 505.11 1337.81 502.64C1312.72 493.47 1298.27 470.72 1293.24 445.37C1290.19 430.03 1290.55 414.09 1290.55 398.5C1290.55 381.5 1290.55 364.5 1290.55 347.5C1290.55 339.17 1290.55 330.83 1290.55 322.5C1290.55 318.67 1290.93 314.37 1288.12 311.35C1283.41 306.3 1266.07 307.89 1259.5 308.48C1256.12 319.11 1251.61 329.51 1245.31 338.78C1230.42 360.66 1207.29 376.31 1181.34 381.77C1166.95 384.8 1152.16 384.54 1137.5 384.54C1122.83 384.54 1108.17 384.54 1093.5 384.54C1093.17 423.99 1092.83 463.44 1092.5 502.9C1071.5 502.88 1050.5 502.87 1029.5 502.86C1029.39 406.4 1029.28 309.95 1029.17 213.5C1018.81 213.17 1008.44 212.83 998.08 212.5C998.08 194.83 998.07 177.17 998.07 159.5C1008.02 157.74 1019.34 159.07 1029.5 159.07C1049.5 159.07 1069.5 159.07 1089.5 159.07C1105.17 159.07 1120.83 159.07 1136.5 159.07C1145.47 159.07 1154.54 158.7 1163.5 159.26C1190.43 160.92 1216.59 171.4 1235.45 191.05C1241.6 197.45 1246.75 204.78 1251 212.55C1258.95 227.08 1260.74 240.21 1264.5 255.83C1281.82 256.15 1299.17 255.88 1316.5 255.88C1327.91 255.89 1340.35 256.78 1347.34 267.19C1354.95 278.53 1352.13 295.62 1352.13 308.5C1352.13 339.17 1352.13 369.83 1352.13 400.5C1352.13 423.99 1356.03 448.15 1383.52 451.85C1391.09 452.87 1399.26 452.09 1406.59 450.18C1413.1 448.49 1419.26 446.12 1424.95 442.46C1464.46 417.01 1459.61 367.24 1459.61 326.5C1459.61 316.83 1459.61 307.17 1459.61 297.5C1459.61 283.83 1459.61 270.17 1459.61 256.5C1479.91 256.29 1500.2 256.09 1520.5 255.88C1521.66 261.16 1521.07 267.04 1521.07 272.5C1521.07 282.5 1521.07 292.5 1521.07 302.5C1521.07 334.17 1521.07 365.83 1521.07 397.5C1521.07 409.5 1521.07 421.5 1521.07 433.5C1521.07 438.22 1520.48 444.62 1524.2 448.27C1529.68 453.64 1543.75 450.14 1551.05 451.5C1551.06 468.5 1551.07 485.5 1551.08 502.5C1543.97 503.97 1535.82 503.03 1528.5 503.03C1520.83 503.03 1513.17 503.03 1505.5 503.03C1491.78 503.03 1474.2 504.03 1465.72 490.75C1458.35 479.22 1464.31 468.24 1461.5 457.43C1450.57 478.4 1432.77 494.8 1410.34 502.84C1405.83 504.45 1401.13 505.93 1396.44 506.85C1392.37 507.64 1387.69 507.58 1383.88 508.83ZM1535.19 159.26C1552.19 158.28 1569.46 159.07 1586.5 159.07C1596.63 159.07 1608.03 158.48 1616.56 164.95C1631.01 175.91 1626.91 201.56 1626.91 217.5C1626.91 264.17 1626.91 310.83 1626.91 357.5C1626.91 379.83 1626.91 402.17 1626.91 424.5C1626.91 430.75 1624.89 444.3 1629.87 448.6C1635.57 453.52 1648.8 450.16 1656.1 451.5C1656.1 468.5 1656.1 485.5 1656.1 502.5C1649.28 503.9 1641.52 503.03 1634.5 503.03C1619.76 503.03 1603.96 504.59 1589.44 502.22C1582.73 501.13 1576.13 499.45 1571.54 493.93C1565.46 486.61 1565.07 476.54 1565.07 467.5C1565.07 457.5 1565.07 447.5 1565.07 437.5C1565.07 390.17 1565.07 342.83 1565.07 295.5C1565.07 275.5 1565.07 255.5 1565.07 235.5C1565.07 229.37 1567.3 218.13 1561.77 213.72C1556.59 209.6 1541.96 212.2 1535.19 211.5C1535.19 194.09 1535.19 176.68 1535.19 159.26ZM278.73 160.42C283.01 160 287.5 160.57 291.56 161.87C324.96 172.53 321.1 221.54 286.47 226.9C250.77 232.42 233.09 183.91 263.7 165.2C268.29 162.4 273.43 160.93 278.73 160.42ZM2107.5 181.9C2127.16 194.8 2144.79 209.61 2159.37 228.17C2164.27 234.4 2168.43 241.07 2173.03 247.5C2169.12 250.5 2162.53 251.03 2157.73 252.28C2148.34 254.73 2137.05 259.43 2127.5 259.87C2118.03 247.44 2107.58 236.9 2095.06 227.5C2095.44 217.81 2100.24 205.98 2102.76 196.42C2103.98 191.8 2104.52 185.51 2107.5 181.9ZM1093.07 212.99C1093.07 251.98 1093.07 290.96 1093.07 329.95C1105.87 330.2 1118.7 330.02 1131.5 330.02C1146.45 330.02 1162.13 329.88 1175.33 321.86C1209.08 301.33 1208.76 238.91 1173.81 219.66C1161.19 212.7 1147.49 212.92 1133.5 212.92C1120.03 212.92 1106.54 212.71 1093.07 212.99ZM499.02 508.83C490.03 508.83 481.04 508.83 472.06 508.83C467.99 507.44 462.91 507.61 458.55 506.84C454.22 506.08 449.85 505 445.6 503.82C427.77 498.88 410.52 490.21 396.55 477.97C340.57 428.92 337.89 332.43 393.05 281.52C439.81 238.35 525.05 238.21 564.95 290.62C586.44 318.85 590.92 356.21 586.7 390.5C529.97 390.81 473.23 391.12 416.5 391.43C418.19 402.48 420.94 413.03 426.71 422.76C455.29 470.9 522.76 462.74 559.5 429.23C568.03 443.32 576.56 457.41 585.1 471.5C581.37 477.44 573.06 481.94 567.14 485.63C552.31 494.86 535.53 502.3 518.35 505.71C512.15 506.94 504.87 506.91 499.02 508.83ZM1856.5 327.05C1838.54 327.05 1820.58 327.05 1802.61 327.05C1802.61 321.7 1803.63 315.2 1801.36 310.18C1795.92 298.13 1774.58 297.01 1763.5 297.93C1749.9 299.05 1731.58 306.36 1735.23 323.36C1736.55 329.49 1741.95 334.29 1747 337.5C1758.56 344.84 1771.79 349.14 1784.52 353.93C1818.58 366.75 1859.91 382.42 1865.65 423.66C1866.56 430.19 1866.39 437.26 1865.41 443.76C1864.21 451.72 1861.74 459.27 1857.85 466.36C1845.47 488.93 1820.96 501.46 1796.51 506.06C1753.42 514.16 1696.96 500.08 1668.5 464.51C1678.17 451.02 1687.83 437.54 1697.5 424.05C1718.16 443.47 1741.91 460.27 1771.5 460.15C1786.14 460.09 1804.61 454.18 1804.63 436.49C1804.65 429.68 1799.77 424.64 1794.56 420.98C1783.51 413.24 1770.24 408.61 1757.78 403.69C1725.32 390.9 1682.09 373.47 1675.22 334.43C1673.92 327.02 1674.24 319.92 1674.94 312.5C1675.78 303.62 1678.81 294.68 1683.59 287.1C1706.47 250.81 1762.35 244.99 1800.56 252.85C1818.87 256.61 1839.18 262.92 1850.37 279.14C1857.1 288.88 1857 300.14 1857 311.5C1857 316.63 1857.48 322.06 1856.5 327.05ZM2017.07 508.83C2011.04 508.83 2005.01 508.83 1998.98 508.83C1996.34 508 1993.34 508.24 1990.5 507.92C1985.86 507.39 1981.22 506.58 1976.64 505.72C1956.84 502 1937.96 492.68 1922.12 480.4C1861.85 433.67 1860.27 332.83 1915.01 281.5C1956.1 242.96 2028.41 237.98 2072.35 274.1C2094.06 291.96 2106.04 320.15 2109.26 347.46C2110.86 361.06 2112.2 376.72 2108.5 390.03C2051.93 390.19 1995.36 390.34 1938.78 390.5C1939.48 398.55 1941.63 406.31 1944.68 413.78C1967.53 469.67 2042.99 465.47 2081.5 429.15C2090.27 443.27 2099.04 457.38 2107.81 471.5C2091.11 488.38 2062.37 501.25 2039.32 505.7C2034.76 506.58 2030.12 507.39 2025.5 507.93C2022.68 508.26 2019.72 508.01 2017.07 508.83ZM229.06 255.92C247.2 255.71 265.36 255.87 283.5 255.88C294.24 255.89 306.33 256.78 313.21 266.28C321.56 277.82 318.89 295.14 318.89 308.5C318.89 339.83 318.89 371.17 318.89 402.5C318.89 413.17 318.89 423.83 318.89 434.5C318.89 439.3 317.96 444.99 321.96 448.53C327.16 453.13 341.89 450.83 348.81 451.2C348.81 468.34 348.81 485.48 348.81 502.62C338.11 503.32 327.23 502.84 316.5 502.84C306.9 502.84 297.12 503.36 287.56 502.54C278.29 501.75 268.97 500.45 263.07 492.36C254.97 481.25 257.61 464.39 257.61 451.5C257.61 420.83 257.61 390.17 257.61 359.5C257.61 347.83 257.61 336.17 257.61 324.5C257.61 319.84 258.37 313.58 254.27 310.24C249.22 306.15 235.5 308.04 229.06 307.96C229.06 290.62 229.06 273.27 229.06 255.92ZM418.15 346.93C418.44 347.2 418.32 347.8 418.66 348C420.28 348.95 423.68 348.29 425.5 348.29C431.17 348.29 436.83 348.29 442.5 348.29C462.5 348.29 482.5 348.29 502.5 348.29C507.5 348.29 512.5 348.29 517.5 348.29C519.41 348.29 522.63 348.91 524.36 348.01C524.7 347.84 524.65 347.27 524.94 347.03C525.16 326.57 511.69 304.81 491.25 299.29C478.36 295.82 463.69 297.58 451.63 303.12C438.03 309.38 427.79 320.91 422.14 334.67C420.5 338.68 419.64 342.9 418.15 346.93ZM2047.11 347.83C2047.14 340.65 2045.84 333.97 2043.22 327.27C2041.3 322.36 2038.46 317.52 2034.97 313.55C2009.67 284.79 1964.25 298.07 1947.38 328.85C1944.23 334.58 1941.4 341.3 1940.99 347.83C1976.36 347.83 2011.74 347.83 2047.11 347.83ZM834.75 303.37C786.35 311.92 773.21 366.96 784.78 408.59C791.82 433.94 811.93 457.64 840.5 456.86C847.67 456.67 855.02 455.62 861.82 453.38C902.49 439.94 910.19 387.04 900.46 351.08C892.48 321.54 867.24 297.62 834.75 303.37Z" fill="#00034d" fill-rule="evenodd" stroke="#00034d" stroke-width="0.25" stroke-linejoin="round"/>
<path d="M418.15 346.93C453.75 346.96 489.35 346.99 524.94 347.03C524.65 347.27 524.7 347.84 524.36 348.01C522.63 348.91 519.41 348.29 517.5 348.29C512.5 348.29 507.5 348.29 502.5 348.29C482.5 348.29 462.5 348.29 442.5 348.29C436.83 348.29 431.17 348.29 425.5 348.29C423.68 348.29 420.28 348.95 418.66 348C418.32 347.8 418.44 347.2 418.15 346.93Z" fill="#1f2163" fill-rule="evenodd" stroke="#1f2163" stroke-width="0.25" stroke-linejoin="round"/>
</svg>