<?xml version="1.0" encoding="UTF-8"?>
<svg xmlns="http://www.w3.org/2000/svg" viewBox="0 0 2355 509" width="2355" height="509">
<path d="M2155 0.17C2155.33 0.17 2155.67 0.17 2156 0.17C2159.97 3.09 2165.78 4.87 2170.34 7.16C2181.06 12.51 2191.92 18.09 2201.97 24.53C2222 37.37 2239.95 52.27 2258.5 67C2264.99 72.16 2270.63 79.13 2276.5 85C2300.15 108.65 2319.54 135.06 2337.47 163.03C2341.68 169.59 2346.02 177.36 2348.81 184.69C2350.57 189.31 2351.93 195.06 2354.83 199C2354.83 199.33 2354.83 199.67 2354.83 200C2340.39 204 2325.94 208 2311.5 212C2308.68 208.38 2306.96 202.9 2304.84 198.66C2300.85 190.68 2296.28 182.54 2291.47 175.03C2284.87 164.74 2277.65 154.87 2270.47 145.03C2265.47 138.18 2259.27 132.13 2254 125.5C2248.66 118.78 2234.88 105.46 2228.03 100.47C2223.67 97.29 2220.33 92.71 2215.97 89.53C2202.65 79.81 2189.93 69.48 2175.97 60.53C2169.15 56.16 2161.61 51.48 2154 48.5C2150.4 47.09 2146.02 45.85 2143 43.5C2147 29.06 2151 14.61 2155 0.17ZM2265.5 224C2251.33 227.5 2237.17 231 2223 234.5C2219.69 231.04 2218.04 226.05 2215.47 222.03C2211.35 215.6 2206.96 209.19 2202.47 203.03C2198.42 197.48 2193.27 192.88 2189 187.5C2183.31 180.34 2176.66 173.69 2169.5 168C2165.44 164.77 2162.16 160.59 2157.97 157.53C2145.63 148.52 2133.85 139.43 2120 132.5C2123.67 118.17 2127.33 103.83 2131 89.5C2134.9 88.97 2138.12 92.08 2141.66 93.84C2151.33 98.68 2160.06 104.59 2169.03 110.47C2199.42 130.38 2224.29 157.86 2245.53 186.97C2251.42 195.03 2256.65 203.33 2261.16 212.34C2262.97 215.98 2266.04 220.02 2265.5 224ZM0.17 159C54.94 159 109.72 159 164.5 159C177.84 159 192.56 157.37 205.53 159.97C212.1 161.28 219.23 163.09 223.47 169.03C229.48 177.44 229 187.7 229 197.5C229 212.83 229 228.17 229 243.5C210.17 243.67 191.33 243.83 172.5 244C170.93 236.14 174.4 223.88 170.47 217.03C166.98 210.96 157.21 213 151.5 213C132.83 213 114.17 213 95.5 213C95.33 245.17 95.17 277.33 95 309.5C131.5 309.67 168 309.83 204.5 310C204.67 327.83 204.83 345.67 205 363.5C168.5 363.67 132 363.83 95.5 364C95.33 410.17 95.17 456.33 95 502.5C73.83 502.67 52.67 502.83 31.5 503C31.33 406.5 31.17 310 31 213.5C20.72 213.33 10.44 213.17 0.17 213C0.17 195 0.17 177 0.17 159ZM588.03 159C605.18 159 622.34 159 639.5 159C649.51 159 660.38 158.4 668.97 164.53C683.54 174.94 680 197.04 680 212.5C680 255.17 680 297.83 680 340.5C680 365.5 680 390.5 680 415.5C680 422.5 680 429.5 680 436.5C680 439.33 679.25 443.4 680.53 445.97C684.39 453.68 701.74 451 708.99 451C708.99 468.17 708.99 485.33 708.99 502.5C702.2 503.86 694.48 503 687.5 503C673.58 503 655.58 504.74 642.31 502.19C635.27 500.83 628.09 499.35 623.53 492.97C614.99 481.01 618 451.4 618 436.5C618 390.5 618 344.5 618 298.5C618 277.5 618 256.5 618 235.5C618 228.69 620.37 218.1 613.97 213.53C609.32 210.21 594.08 212 588.03 212C588.03 194.33 588.03 176.67 588.03 159ZM840 508.83C832.33 508.83 824.67 508.83 817 508.83C814.75 507.65 803.35 506.57 799.69 505.81C791.09 504.03 781.15 499.54 773.66 494.84C750.52 480.34 732.41 456.44 725.81 429.69C725.2 427.2 723.71 424.82 723.19 422.31C721.48 414.08 720.33 405.74 719.03 397.47C718.37 393.25 719.63 388.75 718.97 384.53C718.74 383.09 718.09 382 718 380.5C717.89 378.55 718.69 377.28 718.97 375.47C719.68 370.92 718.32 366.08 719.03 361.53C719.56 358.18 720.42 354.81 720.97 351.47C729.35 300.25 759.35 260.66 812.47 251.97C821.88 250.43 831.03 249.48 840.53 250.97C842.8 251.32 845.2 250.68 847.47 251.03C855.76 252.33 864.07 254.4 872 257.5C880.24 260.72 887.63 265.55 894.5 271C897.7 273.54 899.64 277.14 902.5 280C903.43 275.34 902 270.39 902 265.5C902 253.5 902 241.5 902 229.5C902 224.56 903.61 216.92 898.97 213.53C893.64 209.65 879.84 212.87 873 211.5C870.99 207.29 872 201.23 872 196.5C872 185.57 870.43 170.34 872.5 160C878.02 157.37 890.93 159 897.5 159C905.5 159 913.5 159 921.5 159C936.91 159 955.32 158.67 961.81 175.69C964.79 183.49 964 192.21 964 200.5C964 213.5 964 226.5 964 239.5C964 285.83 964 332.17 964 378.5C964 396.17 964 413.83 964 431.5C964 436.68 962.47 446.21 968.03 449.47C973.6 452.74 986.88 451 993.5 451C993.67 468.17 993.83 485.33 994 502.5C986.9 503.92 978.8 503 971.5 503C961.17 503 950.83 503 940.5 503C929.51 503 917.68 502.77 910.53 492.97C905.25 485.73 907.15 477.24 905.5 469C896.15 486.86 877.46 497.89 859.31 504.81C855.1 506.42 849.89 507.28 845.47 507.97C843.36 508.3 841.81 507.88 840 508.83ZM1384 508.83C1378.33 508.83 1372.67 508.83 1367 508.83C1364.39 507.47 1361.5 508.43 1358.53 507.97C1353.58 507.19 1348.59 506.02 1343.69 504.81C1321.33 499.3 1305.12 481.11 1297.19 460.31C1290.92 443.87 1291 426.04 1291 408.5C1291 390.5 1291 372.5 1291 354.5C1291 345.5 1291 336.5 1291 327.5C1291 322.87 1291.63 317.25 1289.47 313.03C1285.64 305.56 1266.71 308 1259.5 308C1257.23 318.54 1251.41 329.06 1245.53 338.03C1229.78 362.07 1203.81 378.53 1175.47 382.97C1169.89 383.84 1164.12 383.16 1158.53 384.03C1149.71 385.41 1140.56 385 1131.5 385C1118.83 385 1106.17 385 1093.5 385C1093.33 424.17 1093.17 463.33 1093 502.5C1071.83 502.67 1050.67 502.83 1029.5 503C1029.33 406.5 1029.17 310 1029 213.5C1018.83 213.33 1008.67 213.17 998.5 213C998.33 195.17 998.17 177.33 998 159.5C1007.55 157.59 1018.7 159 1028.5 159C1048.5 159 1068.5 159 1088.5 159C1104.17 159 1119.83 159 1135.5 159C1153.74 159 1170.77 158.86 1188.31 163.19C1203.44 166.92 1217.5 175.46 1229.5 185C1239.74 193.13 1246.19 204.81 1252.84 215.66C1259.47 226.46 1262.07 243.86 1264.5 256C1281.5 256 1298.5 256 1315.5 256C1327.4 256 1339.82 256.33 1347.47 267.03C1353.98 276.15 1352 295.59 1352 306.5C1352 337.5 1352 368.5 1352 399.5C1352 424.01 1355.2 447.53 1383.53 451.97C1391.02 453.14 1399.57 451.89 1406.69 450.19C1413.92 448.46 1419.84 445.59 1426.03 441.53C1463.65 416.89 1460 367.97 1460 328.5C1460 318.17 1460 307.83 1460 297.5C1460 283.83 1460 270.17 1460 256.5C1480.17 256.33 1500.33 256.17 1520.5 256C1521.55 261.27 1521 267.08 1521 272.5C1521 282.5 1521 292.5 1521 302.5C1521 334.17 1521 365.83 1521 397.5C1521 409.17 1521 420.83 1521 432.5C1521 437.71 1520.14 444.27 1524.19 448.31C1528.88 453 1544 451 1550.5 451C1550.67 468.17 1550.83 485.33 1551 502.5C1543.9 503.92 1535.8 503 1528.5 503C1520.83 503 1513.17 503 1505.5 503C1491.19 503 1472.24 504.03 1464.53 488.97C1459.48 479.1 1463.59 467.43 1461.5 457C1451.5 476.99 1434.51 493.73 1413.31 501.81C1408.05 503.82 1401.99 506.06 1396.47 506.97C1392.65 507.59 1387.26 507.13 1384 508.83ZM1535.03 159C1552.18 159 1569.34 159 1586.5 159C1596.41 159 1607.63 158.44 1615.97 164.53C1630.79 175.35 1627 197.5 1627 213.5C1627 255.83 1627 298.17 1627 340.5C1627 366.5 1627 392.5 1627 418.5C1627 425.35 1624.97 442.42 1629 447.5C1633.63 453.32 1648.96 451 1655.99 451C1655.99 468.17 1655.99 485.33 1655.99 502.5C1647.06 504.29 1636.66 503 1627.5 503C1615.1 503 1601.37 504.51 1589.31 502.19C1583.04 500.98 1576.34 499.96 1572 494.5C1561.44 481.21 1565 454.09 1565 437.5C1565 391.17 1565 344.83 1565 298.5C1565 277.83 1565 257.17 1565 236.5C1565 230.09 1567.35 218.38 1561.97 213.53C1559.72 211.5 1556.25 212 1553.5 212C1547.34 212 1541.18 212 1535.03 212C1535.03 194.33 1535.03 176.67 1535.03 159ZM278.69 160.19C281.64 159.62 283.77 160.52 286.53 160.97C301.73 163.46 312.53 173.98 314.97 189.53C317.72 207.08 303.31 224.33 286.47 226.97C262.09 230.79 242.54 206.71 249.19 183.69C253.2 169.78 265.47 162.73 278.69 160.19ZM2107.5 182C2134.12 198.7 2156.3 220.86 2173 247.5C2169.15 250.49 2162.43 251.06 2157.69 252.19C2148.67 254.34 2136.38 259.41 2127.5 260C2123.92 255.59 2120.54 250.95 2117 246.5C2111.38 239.43 2101.97 233.15 2095 227.5C2095.75 216.28 2101.11 204.28 2103.81 193.31C2104.75 189.51 2105 184.6 2107.5 182ZM1093.01 213C1093.01 252 1093.01 291 1093.01 330C1111.31 330 1132.81 331.81 1150.53 329.03C1152.48 328.73 1154.52 329.27 1156.47 328.97C1162.72 327.99 1169.91 325.25 1175.34 321.84C1203.9 303.94 1207.5 258.12 1188.47 232.03C1184.66 226.82 1178.72 222.46 1173.34 219.16C1163.15 212.9 1150.03 213 1138.5 213C1123.34 213 1108.17 213 1093.01 213ZM499 508.83C490 508.83 481 508.83 472 508.83C468.44 506.97 462.67 507.62 458.53 506.97C452.87 506.08 447.28 504.19 441.69 502.81C425.66 498.86 411.08 488.99 398.03 479.47C392.02 475.08 385.79 467.95 381.47 462.03C368.2 443.85 359.51 427.78 355.19 405.31C354.25 400.42 354.74 395.44 353.97 390.53C352.76 382.8 352.76 375.2 353.97 367.47C354.32 365.2 353.68 362.8 354.03 360.53C355.53 350.99 357.35 341.4 360.81 332.31C362.92 326.78 364.58 321.03 367.19 315.69C373.19 303.39 383.64 288.63 394.5 280C402.97 273.27 411.88 266.98 421.69 262.19C458.13 244.39 511.66 246.23 544.97 270.53C556.63 279.04 565.3 290.62 572.84 302.66C581.96 317.19 585.4 337.16 587.97 353.53C589.77 365.06 587 378.95 587 390.5C530.17 390.67 473.33 390.83 416.5 391C417.18 394.68 417.41 398.57 418.19 402.31C420.79 414.87 428.24 425.74 436 435.5C437.14 436.93 438.56 437.51 439.97 438.53C441.49 439.64 442.51 441.36 444.03 442.47C449.94 446.78 456.39 449.88 463.31 452.19C470.42 454.56 477.21 455.82 484.53 456.97C489.51 457.75 494.75 456.78 499.53 456.03C503.13 455.47 506.72 455.5 510.31 454.81C526.67 451.66 547.7 440.8 559.5 429C561.61 433.04 564.42 436.8 566.84 440.66C570.6 446.64 573.72 453.02 577.53 458.97C580.13 463.02 585.16 468.12 584.5 473C570.51 486.42 545.07 499.18 526.31 503.81C520 505.37 513.63 506.6 507.31 507.81C504.43 508.37 501.52 507.51 499 508.83ZM1857 326.99C1839.17 326.99 1821.33 326.99 1803.5 326.99C1802.43 321.67 1803.79 315.86 1801.81 310.69C1798.03 300.78 1778.08 296.4 1769.31 297.81C1764.43 298.6 1759.54 298.22 1754.69 299.19C1743.29 301.47 1732.68 310.77 1735.19 323.31C1736.55 330.1 1742.9 334.74 1748.34 338.16C1758.34 344.42 1769.39 348.02 1780.31 352.19C1816.58 366.01 1859.12 380.79 1865.97 424.53C1866.97 430.92 1866.04 438.35 1865.03 444.53C1863.67 452.84 1861.46 460.99 1856.84 468.34C1841.48 492.85 1816.73 502.77 1789.53 507.03C1782.61 508.12 1775.64 508 1768.5 508C1728.23 508 1696.23 492.73 1668 464.5C1677.83 451 1687.67 437.5 1697.5 424C1717.49 443.99 1742.43 460 1771.5 460C1786.62 460 1800.74 455.97 1804.03 439.53C1804.24 438.51 1804.94 437.54 1804.94 436.5C1804.94 428.64 1798.32 423.8 1792.66 419.84C1780.85 411.59 1765.98 406.88 1752.69 401.81C1726.14 391.69 1697.65 378.05 1682.16 353.34C1677.5 345.92 1676.27 337.84 1674.97 329.53C1674.36 325.62 1673.39 321.65 1674.03 317.53C1675.2 310.04 1676.45 302.86 1679.19 295.69C1688.84 270.37 1716.84 256.97 1741.69 252.19C1746.25 251.31 1750.9 251.69 1755.47 250.97C1763.38 249.73 1773.35 248.76 1781.47 250.03C1789.25 251.25 1796.97 252.27 1804.69 253.81C1816.61 256.2 1828.99 260.25 1838.97 267.53C1840.11 268.36 1840.89 269.64 1842.03 270.47C1843.97 271.89 1845.99 273 1847.47 275.03C1859.87 292.03 1857 306.87 1857 326.99ZM2017 508.83C2011 508.83 2005 508.83 1999 508.83C1996.14 507.34 1992.78 508.48 1989.53 507.97C1982.55 506.87 1975.61 505.47 1968.69 503.81C1951.59 499.73 1936.09 490.73 1922.03 480.47C1914.45 474.93 1907.94 467.54 1902.47 460.03C1898.91 455.15 1895.38 450.49 1892.16 445.34C1877.11 421.35 1872.74 381.91 1877.03 354.53C1878.65 344.21 1882.07 334.12 1885.81 324.31C1891.46 309.5 1903.98 289.94 1916.5 280C1927.61 271.18 1939.23 263.32 1952.69 258.19C1959.52 255.58 1967.36 253.15 1974.53 252.03C1978.49 251.41 1982.5 251.59 1986.47 250.97C2022.94 245.26 2065.17 259.48 2087.47 290.03C2098.72 305.45 2104.65 322.94 2108.19 341.31C2111.26 357.28 2111.7 373.98 2108.5 390C2052.17 390 1995.83 390 1939.5 390C1937.1 402 1947.49 420.47 1954.47 430.03C1963.69 442.67 1979.37 451.86 1994.69 454.81C1999.27 455.7 2003.88 455.31 2008.47 456.03C2009.92 456.26 2010.97 457 2012.5 457C2014.03 457 2015.08 456.26 2016.53 456.03C2021.45 455.26 2026.4 455.76 2031.31 454.81C2048.06 451.59 2069.4 441.1 2081.5 429C2090.33 443.17 2099.17 457.33 2108 471.5C2093.47 486.03 2067.13 498.92 2047.31 503.81C2040.41 505.52 2033.44 506.88 2026.47 507.97C2023.22 508.48 2019.86 507.34 2017 508.83ZM229.03 256C246.52 256 264.01 256 281.5 256C294.03 256 307.05 256.46 314.47 268.03C321.03 278.27 319 298.49 319 310.5C319 341.83 319 373.17 319 404.5C319 414.5 319 424.5 319 434.5C319 438.92 318.09 443.83 321 447.5C325.56 453.24 342.03 451 348.99 451C348.99 468.17 348.99 485.33 348.99 502.5C339.15 504.48 327.6 503 317.5 503C306.52 503 295.18 503.71 284.47 502.03C278.56 501.11 273.23 501.18 268.03 497.47C256.97 489.57 258 475.5 258 463.5C258 437.17 258 410.83 258 384.5C258 366.5 258 348.5 258 330.5C258 324.31 259.5 314.76 254.31 310.19C249.75 306.16 235.11 308 229.03 308C229.03 290.67 229.03 273.33 229.03 256ZM525 346.99C525 327.42 513.07 307.34 494.31 300.19C490 298.54 485.97 298.66 481.53 297.97C480.47 297.8 479.57 297.06 478.5 297.06C477.19 297.06 475.86 297.88 474.5 298C468.05 298.59 461.83 298.84 455.69 301.19C436.05 308.68 422.26 326.76 418.5 346.99C454 346.99 489.5 346.99 525 346.99ZM2047 347.99C2047 340 2045.65 333.14 2042.81 325.69C2040.95 320.81 2037.16 315.66 2033.5 312C2013.63 292.13 1983.69 294.73 1962.03 310.53C1955.71 315.14 1951.85 321.95 1947.84 328.34C1944.32 333.96 1941.38 341.32 1941 347.99C1976.33 347.99 2011.67 347.99 2047 347.99ZM834.69 303.19C810.55 307.84 794.86 322.93 786.19 345.69C784.21 350.87 782.88 357.1 782.03 362.53C781.73 364.48 782.27 366.52 781.97 368.47C779.74 382.7 781.28 398.09 785.81 411.69C793.2 433.84 805.92 449.6 829.31 455.19C833.34 456.15 838.22 457.63 842.47 456.97C854.2 455.13 865.88 453.68 875.97 446.47C902.31 427.65 908.12 388.97 902.19 359.31C898.08 338.78 888.29 318.66 868.66 308.84C865.09 307.06 861.23 304.97 857.31 304.19C855.78 303.88 854.22 304.11 852.69 303.81C847.27 302.77 840.27 302.11 834.69 303.19Z" fill="#ffffff" fill-rule="evenodd" stroke="#ffffff" stroke-width="0.25" stroke-linejoin="round"/>
</svg>