<?xml version="1.0" encoding="UTF-8"?>
<svg xmlns="http://www.w3.org/2000/svg" viewBox="0 0 907 906" width="907" height="906">
<path d="M895.74 514.9C885.59 502.22 873.73 490.71 862.54 478.95C844.86 460.36 826.45 442.29 807.16 425.34C770.48 393.12 733.33 361.47 693.93 332.55C661.88 309.02 628.45 287.54 594.21 267.33C567.95 251.82 541.01 237.18 513.5 224C503.57 219.24 493.69 214.41 483.67 209.83C479.38 207.87 475.05 205.39 470.5 204.22C458.01 250.32 445.52 296.41 433.03 342.5C443.48 350.2 462.01 355.34 474.26 361.25C500.17 373.74 525.35 388.23 549.34 404.12C645.05 467.53 738.89 544.56 811.68 633.81C830.93 657.41 850.07 680.96 867.58 705.9C875.51 717.19 885.19 728.61 891.27 741C889.62 752.91 884.88 764.71 880.3 775.77C869.47 801.92 852.01 827.44 830.22 845.71C822.54 852.15 811.48 863.26 802 866.14C794.08 853.73 787.44 840.52 779.37 828.16C763.81 804.32 747.2 781.27 729.91 758.66C654.24 659.76 558.53 575.05 450.2 513.33C432.68 503.34 414.8 493.33 396.5 484.83C393.6 488.5 393.04 494.78 391.79 499.44C389.39 508.4 387.13 517.4 384.75 526.37C378.65 549.33 372.54 572.29 366.7 595.31C364.33 604.67 361.17 613.98 359.5 623.5C375.92 633.01 392.91 641.17 408.78 651.68C503.49 714.35 593.45 799.21 653.96 895.81C588.3 895.82 522.63 895.83 456.96 895.84C447.87 884 436.41 873.2 425.56 862.95C405.54 844.05 384.74 826.16 362.32 810.14C347.91 799.85 332.7 790.63 318.5 780.04C308.01 818.64 297.53 857.24 287.04 895.84C270.37 897.09 253.23 896.03 236.5 896.03C214.74 896.03 193 896.7 171.55 892.88C151.22 889.25 131.51 881.94 113.3 872.2C64.52 846.12 27.71 798.34 15.17 744.42C7.96 713.36 9.97 681.24 9.97 649.5C9.97 602.83 9.97 556.17 9.97 509.5C9.97 468.83 9.97 428.17 9.97 387.5C9.97 346.5 9.97 305.5 9.97 264.5C9.97 235.96 7.67 204.59 12.15 176.55C20.59 123.63 50.79 75.86 94.64 45.06C120.79 26.7 151.93 15.08 183.52 11.15C208.42 8.05 234.42 9.97 259.5 9.97C310.17 9.97 360.83 9.97 411.5 9.97C484.17 9.97 556.83 9.97 629.5 9.97C675.85 9.97 723.2 5.86 767.38 22.14C832.01 45.95 880.29 104.03 892.88 171.55C897.29 195.19 896.03 219.51 896.03 243.5C896.03 278.83 896.03 314.17 896.03 349.5C896.03 385.83 896.03 422.17 896.03 458.5C896.03 470.5 896.03 482.5 896.03 494.5C896.03 501.25 896.51 508.2 895.74 514.9Z" fill="#00034d" fill-rule="evenodd" stroke="#00034d" stroke-width="0.25" stroke-linejoin="round"/>
<path d="M895.74 514.9C897.46 532.11 896 550.19 896 567.5C896 601.17 896 634.83 896 668.5C896 684.92 897.55 702.45 895.03 718.53C893.88 725.91 894.38 734.17 891.27 741C885.19 728.61 875.51 717.19 867.58 705.9C850.07 680.96 830.93 657.41 811.68 633.81C738.89 544.56 645.05 467.53 549.34 404.12C525.35 388.23 500.17 373.74 474.26 361.25C462.01 355.34 443.48 350.2 433.03 342.5C445.52 296.41 458.01 250.32 470.5 204.22C475.05 205.39 479.38 207.87 483.67 209.83C493.69 214.41 503.57 219.24 513.5 224C541.01 237.18 567.95 251.82 594.21 267.33C628.45 287.54 661.88 309.02 693.93 332.55C733.33 361.47 770.48 393.12 807.16 425.34C826.45 442.29 844.86 460.36 862.54 478.95C873.73 490.71 885.59 502.22 895.74 514.9ZM802 866.14C799.88 869.02 796.94 869.66 794.03 871.53C787.09 875.98 779.35 879.27 771.69 882.19C758.29 887.3 744.54 891.77 730.47 893.97C725.15 894.8 719.76 895.14 714.47 895.97C706.01 897.29 692.5 896 683.5 896C673.71 896 663.71 896.55 653.96 895.81C593.45 799.21 503.49 714.35 408.78 651.68C392.91 641.17 375.92 633.01 359.5 623.5C361.17 613.98 364.33 604.67 366.7 595.31C372.54 572.29 378.65 549.33 384.75 526.37C387.13 517.4 389.39 508.4 391.79 499.44C393.04 494.78 393.6 488.5 396.5 484.83C414.8 493.33 432.68 503.34 450.2 513.33C558.53 575.05 654.24 659.76 729.91 758.66C747.2 781.27 763.81 804.32 779.37 828.16C787.44 840.52 794.08 853.73 802 866.14ZM456.96 895.84C400.32 895.84 343.68 895.84 287.04 895.84C297.53 857.24 308.01 818.64 318.5 780.04C332.7 790.63 347.91 799.85 362.32 810.14C384.74 826.16 405.54 844.05 425.56 862.95C436.41 873.2 447.87 884 456.96 895.84Z" fill="#ffffff" fill-rule="evenodd" stroke="#ffffff" stroke-width="0.25" stroke-linejoin="round"/>
</svg>